<svg width="114" height="114" viewBox="0 0 114 114" fill="none" xmlns="http://www.w3.org/2000/svg">
<g id="Frame 15">
<circle id="Ellipse 3" cx="57" cy="57" r="57" fill="white"/>
<path id="Vector" d="M28 26H91V88H28V26Z" fill="#F7DF1E"/>
<path id="Vector_2" d="M44.5651 77.8117L49.386 74.9403C50.3163 76.5632 51.1623 77.9364 53.1919 77.9364C55.1373 77.9364 56.364 77.1876 56.364 74.2746V54.4641H62.2843V74.3569C62.2843 80.3915 58.6899 83.1384 53.4456 83.1384C48.7095 83.1384 45.9604 80.7245 44.5648 77.8112M65.5 77.1874L70.3205 74.4407C71.5896 76.4802 73.2389 77.9783 76.1566 77.9783C78.6099 77.9783 80.1741 76.7713 80.1741 75.1065C80.1741 73.1089 78.5671 72.4012 75.8606 71.2363L74.3808 70.6115C70.1094 68.8224 67.2761 66.5749 67.2761 61.8305C67.2761 57.4605 70.6591 54.1309 75.9455 54.1309C79.7092 54.1309 82.4158 55.4212 84.3609 58.7922L79.7511 61.7058C78.7359 59.9162 77.6369 59.2088 75.9452 59.2088C74.2112 59.2088 73.1117 60.2909 73.1117 61.7058C73.1117 63.4536 74.2112 64.1615 76.7485 65.2436L78.2285 65.8678C83.2611 67.9905 86.0944 70.1545 86.0944 75.0234C86.0944 80.2677 81.9078 83.1391 76.2833 83.1391C70.7859 83.1391 67.2335 80.5588 65.4998 77.1876" fill="black"/>
</g>
</svg>
