<svg width="62" height="58" viewBox="0 0 62 58" fill="none" xmlns="http://www.w3.org/2000/svg">
<g id="logos:web3js" clip-path="url(#clip0_4_95)">
<path id="Vector" d="M20.6748 10.5811C20.6748 10.5811 18.3772 11.905 18.3772 14.5483V27.7602C18.3772 27.7602 18.3772 30.4077 16.0796 29.0841C13.7819 27.7605 13.7819 25.1171 13.7819 25.1171V11.9052C13.7819 11.7402 13.7902 11.5795 13.8066 11.4226C14.0587 9.09706 16.0754 7.93416 16.0754 7.93416L11.4845 5.29057C11.4845 5.29057 11.4804 5.29057 11.4763 5.29467C11.3399 5.37297 9.1869 6.69682 9.1869 9.25752V22.4694C9.1869 22.4694 9.1869 25.1169 6.88902 23.7933C4.59139 22.4697 4.59139 19.8263 4.59139 19.8263V6.61442C4.59139 3.97107 6.88902 2.64746 6.88902 2.64746L2.29763 0C2.29763 0 0 1.32361 0 3.96696V17.1789C0 17.1789 0 25.1169 6.88878 29.0839C9.00066 30.3004 10.4635 30.3951 11.4802 29.9456C12.4966 31.5663 13.9597 33.1581 16.0713 34.3744C22.9601 38.3414 22.9601 30.4075 22.9601 30.4075V17.1955C22.9601 14.5481 25.258 13.2286 25.258 13.2286C24.5515 12.3422 23.9235 11.7399 23.3738 11.4224C22.9051 11.1517 22.0054 10.8711 20.6748 10.5811Z" fill="#808285"/>
<path id="Vector_2" d="M45.9287 33.0632C45.9287 25.2284 52.8175 29.0963 52.8175 29.0963L62 34.3868V39.6776L52.8175 34.3868C52.8175 34.3868 52.7884 34.3702 52.7373 34.3443L52.707 34.3296C52.2483 34.1058 50.5201 33.4151 50.5201 35.7148C50.5201 38.3579 52.8175 39.6818 52.8175 39.6818L57.4088 42.3249C57.4088 42.3249 62 44.9723 62 52.9062C62 60.8402 55.1112 56.873 55.1112 56.873L45.9287 51.5824V46.2918L55.1153 51.5824C55.1153 51.5824 57.413 52.9062 57.413 50.2588C57.413 47.6154 55.1153 46.2918 55.1153 46.2918L52.8175 44.9682C52.6804 44.8863 45.9287 40.8198 45.9287 33.0632ZM39.0399 21.1628C40.4129 21.3202 41.3436 21.5398 41.8323 21.8216C42.3639 22.1281 42.9633 22.791 43.631 23.8101C43.631 23.8101 41.3334 25.1339 41.3334 27.777L41.3332 41.01C41.3271 41.4546 41.1266 48.8039 34.4444 44.9561C27.7624 41.1081 27.5617 33.5239 27.5558 33.0722L27.5556 33.0512L32.1468 35.6986V35.7073C32.1492 35.8753 32.2243 38.3864 34.4444 39.6653C36.6718 40.9486 36.7401 38.5 36.742 38.349V25.1298C36.742 22.4865 39.0399 21.1628 39.0399 21.1628ZM27.5638 22.5152L32.155 25.1586V30.4491L27.5638 27.806V22.5152Z" fill="#BCBEC0"/>
<path id="Vector_3" d="M52.8174 10.5811C50.7017 9.36068 48.8049 8.76667 47.189 8.52766C46.7676 7.60812 45.7344 6.52762 43.6351 5.33186C36.7461 1.40622 29.8615 5.29077 29.8615 5.29077L20.6748 10.5809L25.2662 13.2242L34.4485 7.93364C34.4485 7.93364 36.7461 6.60979 39.0399 7.93364C41.3375 9.25725 39.0399 10.5809 39.0399 10.5809L29.8573 15.8714L34.4485 18.5148L43.6393 13.2199C43.7756 13.1418 45.9989 11.9417 48.2222 13.2242C50.5198 14.5478 48.2222 15.8673 48.2222 15.8673L39.0399 21.1581L43.631 23.8053L55.1112 17.1909C55.1112 17.1909 59.7023 14.5478 52.8177 10.5809L52.8174 10.5811Z" fill="#F16822"/>
</g>
<defs>
<clipPath id="clip0_4_95">
<rect width="62" height="58" fill="white"/>
</clipPath>
</defs>
</svg>
