<svg width="62" height="62" viewBox="0 0 62 62" fill="none" xmlns="http://www.w3.org/2000/svg">
<g id="skill-icons:react-dark" clip-path="url(#clip0_4_81)">
<g id="Group">
<path id="Vector" d="M47.4688 0H14.5312C6.50586 0 0 6.50586 0 14.5312V47.4688C0 55.4941 6.50586 62 14.5312 62H47.4688C55.4941 62 62 55.4941 62 47.4688V14.5312C62 6.50586 55.4941 0 47.4688 0Z" fill="#242938"/>
<path id="Vector_2" d="M31.0002 35.5897C33.4957 35.5897 35.5185 33.5667 35.5185 31.0715C35.5185 28.5762 33.4957 26.5532 31.0002 26.5532C28.505 26.5532 26.482 28.5762 26.482 31.0715C26.482 33.5667 28.505 35.5897 31.0002 35.5897Z" fill="#00D8FF"/>
<path id="Vector_3" d="M31.0005 21.8848C37.0668 21.8848 42.7023 22.7552 46.9514 24.2182C52.071 25.9806 55.2188 28.6522 55.2188 31.0714C55.2188 33.5924 51.8829 36.4305 46.385 38.252C42.2285 39.6291 36.759 40.3479 31.0005 40.3479C25.0964 40.3479 19.5055 39.6732 15.3021 38.2368C9.98418 36.4192 6.78125 33.5444 6.78125 31.0714C6.78125 28.6718 9.7868 26.0208 14.8345 24.2611C19.0994 22.7741 24.8739 21.8848 30.9995 21.8848H31.0005Z" stroke="#00D8FF" stroke-width="2"/>
<path id="Vector_4" d="M23.0032 26.5045C26.0339 21.2495 29.6031 16.8025 32.9932 13.8526C37.0774 10.2981 40.9646 8.90596 43.06 10.1142C45.2438 11.3736 46.036 15.6816 44.8674 21.3542C43.9846 25.6426 41.8742 30.7396 38.9973 35.7282C36.0477 40.8427 32.6704 45.3489 29.3265 48.2716C25.0952 51.9703 21.0044 53.3089 18.8623 52.0735C16.7836 50.8756 15.9887 46.9471 16.9861 41.6952C17.8286 37.2576 19.9432 31.8111 23.0022 26.5045H23.0032Z" stroke="#00D8FF" stroke-width="2"/>
<path id="Vector_5" d="M23.0107 35.7416C19.9715 30.4924 17.9023 25.1783 17.0386 20.7681C15.9989 15.4542 16.7339 11.3915 18.8277 10.1796C21.0095 8.91639 25.1371 10.3816 29.4679 14.2271C32.7423 17.1343 36.1046 21.5075 38.9898 26.4912C41.9478 31.6009 44.1648 36.7776 45.0273 41.1341C46.1186 46.6473 45.2353 50.8596 43.0951 52.0984C41.0186 53.3006 37.2184 52.0279 33.1664 48.5409C29.7428 45.595 26.08 41.0431 23.0107 35.7416Z" stroke="#00D8FF" stroke-width="2"/>
</g>
</g>
<defs>
<clipPath id="clip0_4_81">
<rect width="62" height="62" fill="white"/>
</clipPath>
</defs>
</svg>
