<svg width="63" height="62" viewBox="0 0 63 62" fill="none" xmlns="http://www.w3.org/2000/svg">
<g id="skill-icons:html" clip-path="url(#clip0_4_66)">
<g id="Group">
<path id="Vector" d="M48.2344 0H14.7656C6.6108 0 0 6.50586 0 14.5312V47.4688C0 55.4941 6.6108 62 14.7656 62H48.2344C56.3892 62 63 55.4941 63 47.4688V14.5312C63 6.50586 56.3892 0 48.2344 0Z" fill="#E14E1D"/>
<path id="Vector_2" d="M11.8125 9.20312L13.9314 32.5967H41.1764L40.2622 42.6306L31.4899 44.9648L22.7341 42.634L22.1487 36.1913H14.2587L15.387 48.6109L31.4882 53.0119L47.6098 48.6109L49.7712 24.8618H21.1207L20.4014 16.9398H50.4834L51.1875 9.20312H11.8125Z" fill="white"/>
<path id="Vector_3" d="M31.5 9.20312H11.8125L13.9314 32.5967H31.5V24.8618H21.1207L20.4014 16.9398H31.5V9.20312ZM31.5 44.9614L31.4899 44.9648L22.7341 42.634L22.1487 36.1913H14.2587L15.387 48.6109L31.4882 53.0119L31.5002 53.0085V44.9614H31.5Z" fill="#EBEBEB"/>
</g>
</g>
<defs>
<clipPath id="clip0_4_66">
<rect width="63" height="62" fill="white"/>
</clipPath>
</defs>
</svg>
