<svg width="64" height="64" viewBox="0 0 64 64" fill="none" xmlns="http://www.w3.org/2000/svg">
<g id="skill-icons:css" clip-path="url(#clip0_4_71)">
<g id="Group">
<path id="Vector" d="M49 0H15C6.71573 0 0 6.71573 0 15V49C0 57.2843 6.71573 64 15 64H49C57.2843 64 64 57.2843 64 49V15C64 6.71573 57.2843 0 49 0Z" fill="#0277BD"/>
<path id="Vector_2" d="M13.4382 25.6628L14.1538 33.6483H32.024V25.6628H13.4382ZM32.0238 9.5H12L12.726 17.4855H32.0238V9.5ZM32.0238 54.7103V46.402L31.9888 46.4113L23.0952 44.01L22.5268 37.641H14.5105L15.6292 50.1795L31.987 54.7205L32.0238 54.7103Z" fill="#EBEBEB"/>
<path id="Vector_3" d="M41.8295 33.6483L40.9025 44.0047L31.9962 46.4087V54.7165L48.367 50.1795L48.487 48.8302L50.3635 27.8072L50.5582 25.6628L52 9.5H31.9962V17.4855H43.2485L42.522 25.6628H31.9962V33.6483H41.8295Z" fill="white"/>
</g>
</g>
<defs>
<clipPath id="clip0_4_71">
<rect width="64" height="64" fill="white"/>
</clipPath>
</defs>
</svg>
